<?xml version="1.0" encoding="UTF-8"?>
<svg id="Livello_2" data-name="Livello 2" xmlns="http://www.w3.org/2000/svg" xmlns:xlink="http://www.w3.org/1999/xlink" viewBox="0 0 1771 436.57">
  <defs>
    <style>
      .cls-1 {
        fill: url(#Sfumatura_senza_nome_2);
      }
    </style>
    <linearGradient id="Sfumatura_senza_nome_2" data-name="Sfumatura senza nome 2" x1="-62.74" y1="1019.55" x2="-60.13" y2="1019.55" gradientTransform="translate(42537.99 100700.22) scale(678 -98.56)" gradientUnits="userSpaceOnUse">
      <stop offset="0" stop-color="#ef4136"/>
      <stop offset="1" stop-color="#fbb040"/>
    </linearGradient>
  </defs>
  <g id="Livello_1-2" data-name="Livello 1">
    <g id="SvgjsG6496">
      <path class="cls-1" d="m28.4,23.78l67.24,396.94c.36,1.22,1.08,1.22,1.08,0V4.88h5.03v411.57c0,11.58-4.67,17.68-11.87,17.68s-10.79-6.1-12.94-18.29L9.35,16.46c0-1.22-.72-1.22-.72,0v415.23H3.6V31.1c0-9.76-.36-15.24-3.6-26.22h15.82c6.11,0,10.79,8.54,12.58,18.9Zm183.75,392.06l2.88,6.71c-5.03,6.71-9.71,9.15-15.82,9.15h-72.63V31.1c0-9.76-.36-15.24-3.6-26.22h83.41v8.54h-62.56v178.65h62.56v8.54h-62.56v222.55h53.93c5.39,0,10.07-2.44,14.38-7.32h0Zm98.89,0l2.88,6.71c-5.03,6.71-9.71,9.15-15.82,9.15h-69.03V31.1c0-9.76-.36-15.24-3.6-26.22h20.85v418.28h50.34c5.39,0,10.07-2.44,14.38-7.32h0ZM423.6,4.88v345.72c0,53.66-18.7,85.36-48.18,85.36-36.67,0-54.65-34.15-54.65-85.36V4.88h17.26v342.67c0,47.56,15.46,79.87,39.91,79.87,22.65,0,40.63-26.83,40.63-75V4.88h5.03Zm181.59,426.81h-24.45c3.24-10.98,3.6-16.46,3.6-26.22V16.46c0-1.22-.72-1.22-.72,0l-55.37,404.25c-1.08,8.54-4.67,12.19-8.99,12.19-4.67,0-7.55-4.27-8.63-12.19L454.18,16.46c0-1.22-.72-1.22-.72,0v415.23h-5.03V31.1c0-9.76-.36-15.24-3.6-26.22h15.46c6.11,0,11.15,8.54,12.58,18.9l52.49,374.99,52.49-379.25c1.44-11.58,5.39-17.07,11.87-17.07s11.87,6.71,11.87,18.29v384.74c0,9.76.36,15.24,3.6,26.22Zm72.65-220.11c26.61,10.37,47.82,45.12,47.82,108.53,0,76.83-31.28,111.58-65.44,111.58h-33.8c3.24-10.98,3.6-16.46,3.6-26.22V31.1c0-9.76-.36-15.24-3.6-26.22h29.84c32.36,0,63.28,32.93,63.28,105.48,0,56.71-18.34,89.63-41.71,101.22Zm-30.56-3.05h5.03c30.92,0,48.54-38.41,48.54-98.17s-17.62-96.95-48.54-96.95h-5.03v195.11Zm0,214.63h8.99c32.36,0,50.7-40.24,50.7-103.04s-18.34-103.04-50.7-103.04h-8.99v206.09h0ZM857.63,0c71.55,0,128.72,96.95,128.72,218.28s-57.17,218.28-128.72,218.28-128.72-96.95-128.72-218.28S786.08,0,857.63,0Zm0,428.03c71.55,0,110.02-106.09,110.02-209.75S929.18,8.54,857.63,8.54s-110.02,106.09-110.02,209.75,38.47,209.75,110.02,209.75Zm181.97,3.66V31.1c0-9.76-.36-15.24-3.6-26.22h29.12c75.5,0,130.52,85.36,130.52,213.41s-55.01,213.41-130.52,213.41h-25.53,0Zm17.26-8.54h3.24c72.63,0,116.85-98.17,116.85-204.87s-44.22-204.87-116.85-204.87h-3.24v409.74h0Zm238.4-7.32l2.88,6.71c-5.03,6.71-9.71,9.15-15.82,9.15h-72.63V31.1c0-9.76-.36-15.24-3.6-26.22h83.41v8.54h-62.56v178.65h62.56v8.54h-62.56v222.55h53.93c5.39,0,10.07-2.44,14.38-7.32h0Zm89.19-368.89l10.43-10.37c-7.19-20.12-20.49-35.97-40.99-35.97-27.33,0-46.38,31.1-46.38,75,0,27.44,3.6,48.17,13.3,73.78l49.98,130.48c11.15,28.66,16.18,53.66,16.18,76.83,0,38.41-9.35,70.73-32.72,70.73s-34.52-32.32-34.52-70.73v-12.19h-18.34v15.24c0,42.68,21.93,76.22,52.85,76.22s50.7-34.15,50.7-82.92c0-26.83-5.75-54.27-17.26-84.14l-49.98-129.87c-8.27-21.95-12.94-44.51-12.94-67.68,0-31.1,8.63-62.19,29.12-62.19,15.1,0,24.81,15.24,30.56,37.8h0Zm55.39-15.85v374.38c0,9.76.36,15.24,3.6,26.22h-24.45c3.24-10.98,3.6-16.46,3.6-26.22V31.1c0-9.76-.36-15.24-3.6-26.22h24.45c-3.24,10.98-3.6,16.46-3.6,26.22Zm191.66,379.86v-180.48c0-9.76-.36-15.24-3.6-26.22h20.85v203.04c-20.85,19.51-44.58,29.27-66.16,29.27-71.91,0-128.72-96.34-128.72-218.28S1513.19,0,1581.5,0c29.48,0,50.7,12.19,68.31,32.32l-9.35,17.68c-16.54-29.27-34.16-41.46-60.4-41.46-64.72,0-107.5,98.17-107.5,209.75s38.11,209.75,110.02,209.75c17.26,0,33.44-5.49,48.9-17.07h0Zm66.17-387.18l67.24,396.94c.36,1.22,1.08,1.22,1.08,0V4.88h5.03v411.57c0,11.58-4.67,17.68-11.87,17.68s-10.79-6.1-12.94-18.29l-67.59-399.37c0-1.22-.72-1.22-.72,0v415.23h-5.03V31.1c0-9.76-.36-15.24-3.6-26.22h15.82c6.11,0,10.79,8.54,12.58,18.9h0Z"/>
    </g>
  </g>
</svg>