<svg height="32" id="svg2" overflow="visible" style="fill-rule:evenodd;stroke-width:0.50099999;stroke-linejoin:bevel;overflow:visible" version="1.1" viewBox="0 0 25.600005 25.600001" width="32"><path d="M 0,-3.651992 0,-36.328324 C 0,-38.342584 1.6353097,-39.980316 3.6503044,-39.980316 L 36.318198,-39.980316 C 38.331527,-39.980316 39.968502,-38.342584 39.968502,-36.328324 L 39.968502,-3.651992 C 39.968502,-1.6360658 38.331527,0 36.318198,0 L 3.6503044,0 C 1.6353097,0 0,-1.6360658 0,-3.651992 z M 38.719538,-3.651992 38.719538,-36.328324 C 38.719538,-37.651172 37.640434,-38.730775 36.318198,-38.730775 L 3.6503044,-38.730775 C 2.326403,-38.730775 1.2489636,-37.651172 1.2489636,-36.328324 L 1.2489636,-3.651992 C 1.2489636,-2.3274785 2.326403,-1.2495411 3.6503044,-1.2495411 L 36.318198,-1.2495411 C 37.640434,-1.2495411 38.719538,-2.3274785 38.719538,-3.651992 z" id="path3125" style="fill:#ffffff;fill-opacity:1;fill-rule:evenodd;stroke:none"/><path d="M 5.3006017,-9.036681 C 4.7394007,-9.3882186 5.0474784,-10.264563 5.7052659,-10.186259 6.1598887,-10.132945 6.6261685,-10.107954 7.0957788,-10.107954 9.1474098,-10.107954 11.07581,-10.619433 12.754417,-11.519103 L 13.032519,-11.68071 12.601211,-11.792336 C 10.611195,-12.473752 9.0408315,-14.04151 8.394701,-16.020783 8.2831269,-16.360658 8.4763,-16.695535 8.7777165,-16.803828 L 9.0591497,-16.823821 8.5645601,-17.173693 C 7.1240887,-18.38658 6.2098473,-20.182587 6.2098473,-22.195182 L 6.2098473,-22.27182 C 6.2098473,-22.743314 6.7144286,-23.044869 7.1307498,-22.819952 L 7.5337487,-22.638352 C 6.7277509,-23.739614 6.2581405,-25.072458 6.2581405,-26.513596 6.2581405,-27.726483 6.5911975,-28.871063 7.1790431,-29.849037 7.4005259,-30.215569 7.9184295,-30.255555 8.1932015,-29.927342 10.747749,-26.866799 14.40971,-24.720921 18.582914,-24.069493 L 19.627047,-23.962866 19.588746,-24.629288 C 19.588746,-28.29794 22.634552,-31.251855 26.354798,-31.251855 27.810257,-31.251855 29.162469,-30.798688 30.268218,-30.032303 L 30.999278,-29.409199 31.700363,-29.575804 C 32.666228,-29.847371 33.578804,-30.235562 34.424769,-30.723716 34.919358,-31.010277 35.507204,-30.53212 35.330684,-29.988986 35.089217,-29.250923 34.767817,-28.531188 34.326517,-27.891423 L 33.986799,-27.489904 35.6321,-27.551548 C 36.143343,-27.57154 36.459747,-26.996751 36.169987,-26.573573 35.470568,-25.55728 34.606285,-25.184084 33.730345,-24.719255 L 33.134173,-24.361053 33.14583,-23.932877 C 33.14583,-15.724225 26.74614,-6.2460393 15.045849,-6.2460393 11.45716,-6.2460393 8.1116026,-7.2739951 5.3006017,-9.036681 z M 31.896866,-23.932877 C 31.896866,-24.179453 31.890205,-24.429361 31.876883,-24.675937 31.865226,-24.890858 31.965143,-25.095783 32.141663,-25.219071 32.814438,-25.693897 33.383966,-25.947137 33.895208,-26.225368 L 32.304861,-26.178719 C 31.660396,-26.153728 31.408938,-27.015078 31.966808,-27.341625 32.508026,-27.659841 32.94433,-28.088017 33.299036,-28.601162 L 33.450577,-28.867731 33.08588,-28.714454 C 32.401448,-28.457881 31.690371,-28.256289 30.95598,-28.11634 30.749485,-28.076355 30.534663,-28.144663 30.388118,-28.296274 29.380621,-29.344223 27.948476,-30.002314 26.354798,-30.002314 23.29567,-30.002314 20.83771,-27.579871 20.83771,-24.629288 20.83771,-24.209442 20.887668,-23.797926 20.980924,-23.403071 21.075845,-22.999886 20.756111,-22.616693 20.341455,-22.636686 15.720289,-22.86327 11.553746,-24.782565 8.4829611,-27.778131 L 7.8767974,-28.431225 7.7002772,-27.931408 C 7.5737156,-27.479907 7.5071042,-27.003416 7.5071042,-26.513596 7.5071042,-24.657611 8.4746347,-23.011548 9.9567382,-22.041905 10.482968,-21.698697 10.221519,-20.874 9.5937061,-20.895659 9.0408315,-20.913985 8.5046098,-20.997288 7.9917021,-21.137237 L 7.5420752,-21.267189 C 7.9400782,-19.087989 9.6636481,-17.363623 11.881808,-16.928782 12.527938,-16.802162 12.557913,-15.880834 11.920109,-15.712562 11.352247,-15.562618 10.756075,-15.482647 10.14325,-15.482647 L 9.9917092,-15.495975 10.339754,-14.932849 C 11.318941,-13.591675 12.917615,-12.705334 14.736106,-12.672013 15.325617,-12.662016 15.572079,-11.908959 15.104134,-11.552424 13.44551,-10.284556 11.467152,-9.4032131 9.3089424,-9.0416792 L 8.2348337,-8.9067288 9.1057776,-8.550193 C 10.950913,-7.8704427 12.952586,-7.4955804 15.045849,-7.4955804 25.938477,-7.4955804 31.896866,-16.29235 31.896866,-23.932877 z" id="path3127" style="fill:#ffffff;fill-opacity:1;fill-rule:evenodd;stroke:none"/></g></svg>